<svg width="28" height="32" viewBox="0 0 28 32" fill="none" xmlns="http://www.w3.org/2000/svg">
<path d="M12.5399 24.7592L4.78605 28.7736C2.48881 29.9116 1.3402 30.4806 0.828294 30.2824C0.387427 30.1117 0.0717375 29.7052 0.00521306 29.2225C-0.0720304 28.6619 0.71029 27.6212 2.27493 25.5398L20.2349 1.64807C20.6142 1.14352 20.9153 0.743034 21.1701 0.439453C20.9155 0.742837 20.6148 1.1429 20.236 1.64678L7.24065 18.935C6.71752 19.6309 6.45595 19.9789 6.40934 20.3351C6.36845 20.6476 6.43583 20.9649 6.59951 21.2308C6.78609 21.5338 7.16445 21.736 7.92118 22.1402L12.5399 24.7592Z" fill="#FAB8B9"/>
<path d="M20.954 0.768168C20.6851 1.08564 20.367 1.50787 19.9639 2.04297L7.13607 19.0697C6.62685 19.7456 6.37225 20.0836 6.32826 20.4284C6.28964 20.7312 6.35817 21.0378 6.52217 21.296C6.709 21.5902 7.08378 21.79 7.83335 22.1895L12.7464 24.8282L24.7239 18.9059C25.2225 18.6595 25.4718 18.5363 25.6414 18.3485C25.7912 18.1828 25.8962 17.9821 25.9467 17.7653C26.0038 17.5197 25.9619 17.2467 25.878 16.7008L23.7717 2.98888C23.5312 1.4234 23.411 0.640665 23.0417 0.322862C22.7212 0.0470676 22.2872 -0.0605687 21.8734 0.0331415C21.598 0.0955247 21.3221 0.333593 20.954 0.768168Z" fill="#FF9692"/>
<path d="M12.7465 24.8281L24.6753 31.1064C25.8877 31.747 26.4939 32.0674 26.9462 31.988C27.3398 31.9189 27.6812 31.678 27.8759 31.3319C28.0996 30.9343 27.9926 30.2617 27.7786 28.9165L25.9746 17.5774C25.9705 17.6258 25.9633 17.6718 25.9528 17.7169C25.9025 17.9333 25.7978 18.1336 25.6485 18.2992C25.4794 18.4867 25.2309 18.6101 24.734 18.8568L12.7465 24.8281Z" fill="#FF432B"/>
</svg>
