<svg width="52" height="52" viewBox="0 0 52 52" fill="none" xmlns="http://www.w3.org/2000/svg">
<rect width="52" height="52" rx="26" fill="#FFE4E0"/>
<path d="M25.9998 14.3334C19.5565 14.3334 14.3332 19.5568 14.3332 26.0001C14.3332 32.4434 19.5565 37.6667 25.9998 37.6667C32.4432 37.6667 37.6665 32.4434 37.6665 26.0001C37.6665 19.5568 32.4432 14.3334 25.9998 14.3334Z" stroke="#FF432B" stroke-width="1.5"/>
<path d="M26 20.1667L26 27.1667" stroke="#FF432B" stroke-width="1.5" stroke-linecap="round"/>
<path d="M25.9998 31.8333C25.3555 31.8333 24.8332 31.311 24.8332 30.6667C24.8332 30.0223 25.3555 29.5 25.9998 29.5C26.6442 29.5 27.1665 30.0223 27.1665 30.6667C27.1665 31.311 26.6442 31.8333 25.9998 31.8333Z" fill="#FF432B"/>
</svg>
