<svg width="8" height="4" viewBox="0 0 8 4" fill="none" xmlns="http://www.w3.org/2000/svg">
<path fill-rule="evenodd" clip-rule="evenodd" d="M0.214965 0.255967C0.247029 0.218556 0.286151 0.18783 0.330095 0.165546C0.37404 0.143261 0.421945 0.129855 0.471073 0.126094C0.5202 0.122333 0.569588 0.12829 0.616413 0.143626C0.663237 0.158961 0.70658 0.183373 0.743965 0.215467L3.99997 3.00597L7.25596 0.215467C7.33188 0.154532 7.42851 0.125503 7.52544 0.134519C7.62236 0.143534 7.71199 0.189887 7.77536 0.263778C7.83873 0.337669 7.87089 0.433308 7.86503 0.530476C7.85917 0.627643 7.81576 0.718726 7.74397 0.784468L4.24397 3.78447C4.17601 3.8427 4.08946 3.87471 3.99997 3.87471C3.91047 3.87471 3.82393 3.8427 3.75597 3.78447L0.255965 0.784468C0.180558 0.719725 0.133935 0.627696 0.126341 0.528599C0.118747 0.429502 0.150803 0.331444 0.215465 0.255967" fill="#949BAD"/>
</svg>
