<svg width="36" height="36" viewBox="0 0 36 36" fill="none" xmlns="http://www.w3.org/2000/svg">
<path fill-rule="evenodd" clip-rule="evenodd" d="M17.2052 23.205C17.4162 22.9943 17.7021 22.876 18.0002 22.876C18.2984 22.876 18.5843 22.9943 18.7952 23.205L21.7952 26.205C21.9058 26.308 21.9944 26.4322 22.0559 26.5702C22.1174 26.7082 22.1505 26.8571 22.1531 27.0082C22.1558 27.1593 22.128 27.3093 22.0714 27.4494C22.0148 27.5895 21.9306 27.7167 21.8238 27.8235C21.717 27.9304 21.5897 28.0146 21.4496 28.0712C21.3095 28.1278 21.1595 28.1555 21.0084 28.1529C20.8574 28.1502 20.7084 28.1171 20.5704 28.0557C20.4324 27.9942 20.3082 27.9055 20.2052 27.795L19.1252 26.715V33C19.1252 33.2984 19.0067 33.5845 18.7957 33.7955C18.5847 34.0065 18.2986 34.125 18.0002 34.125C17.7019 34.125 17.4157 34.0065 17.2047 33.7955C16.9938 33.5845 16.8752 33.2984 16.8752 33V26.715L15.7952 27.795C15.6922 27.9055 15.568 27.9942 15.43 28.0557C15.292 28.1171 15.1431 28.1502 14.992 28.1529C14.841 28.1555 14.6909 28.1278 14.5508 28.0712C14.4108 28.0146 14.2835 27.9304 14.1767 27.8235C14.0698 27.7167 13.9856 27.5895 13.929 27.4494C13.8725 27.3093 13.8447 27.1593 13.8473 27.0082C13.85 26.8571 13.8831 26.7082 13.9446 26.5702C14.006 26.4322 14.0947 26.308 14.2052 26.205L17.2052 23.205Z" fill="#4F5462"/>
<path d="M18.714 5.625C14.589 5.625 11.268 8.925 11.268 12.9705C11.268 13.6635 11.3655 14.334 11.5455 14.967C12.291 15.183 12.99 15.507 13.62 15.927C13.7496 16.0055 13.862 16.1094 13.9505 16.2324C14.0389 16.3554 14.1016 16.495 14.1348 16.6428C14.168 16.7906 14.171 16.9436 14.1436 17.0927C14.1162 17.2417 14.059 17.3836 13.9754 17.51C13.8918 17.6363 13.7835 17.7445 13.6571 17.828C13.5307 17.9115 13.3887 17.9686 13.2396 17.9959C13.0906 18.0231 12.9376 18.02 12.7898 17.9867C12.642 17.9534 12.5024 17.8906 12.3795 17.802C11.5049 17.2225 10.4782 16.915 9.429 16.9185C6.4875 16.9185 4.125 19.2735 4.125 22.1475C4.125 25.0215 6.4875 27.375 9.429 27.375C9.72737 27.375 10.0135 27.4935 10.2245 27.7045C10.4355 27.9155 10.554 28.2016 10.554 28.5C10.554 28.7984 10.4355 29.0845 10.2245 29.2955C10.0135 29.5065 9.72737 29.625 9.429 29.625C5.2695 29.625 1.875 26.289 1.875 22.1475C1.875 18.09 5.13 14.808 9.171 14.673C9.06948 14.1112 9.01827 13.5414 9.018 12.9705C9.018 7.659 13.371 3.375 18.714 3.375C23.451 3.375 27.408 6.741 28.2465 11.2065C31.6965 12.672 34.125 16.0635 34.125 20.0295C34.125 24.6405 30.843 28.476 26.4855 29.409C26.1937 29.4715 25.889 29.4154 25.6385 29.2533C25.388 29.0911 25.2122 28.8361 25.1498 28.5442C25.0873 28.2524 25.1433 27.9478 25.3055 27.6973C25.4677 27.4468 25.7227 27.271 26.0145 27.2085C29.3745 26.4885 31.875 23.5395 31.875 20.0295C31.875 16.824 29.79 14.0865 26.868 13.0875C26.083 12.8185 25.2588 12.6816 24.429 12.6825C23.5545 12.6825 22.719 12.8325 21.942 13.1025C21.6621 13.1939 21.3575 13.1719 21.0936 13.0412C20.8297 12.9106 20.6276 12.6817 20.5306 12.4036C20.4336 12.1256 20.4495 11.8206 20.5748 11.5542C20.7002 11.2877 20.925 11.0811 21.201 10.9785C22.6556 10.4697 24.2101 10.3129 25.737 10.521C25.2131 9.08103 24.2573 7.83797 23.0003 6.96165C21.7432 6.08534 20.2463 5.61853 18.714 5.625Z" fill="#4F5462"/>
</svg>
