<svg width="40" height="40" viewBox="0 0 40 40" fill="none" xmlns="http://www.w3.org/2000/svg">
<path fill-rule="evenodd" clip-rule="evenodd" d="M14.448 9.75H14.552C15.45 9.75 16.2 9.75 16.794 9.83C17.422 9.914 17.989 10.1 18.444 10.555C18.9 11.011 19.086 11.578 19.17 12.205C19.25 12.8 19.25 13.55 19.25 14.448V25.552C19.25 26.451 19.25 27.2 19.17 27.794C19.086 28.422 18.9 28.989 18.444 29.444C17.989 29.9 17.422 30.086 16.794 30.17C16.2 30.25 15.45 30.25 14.552 30.25H14.448C13.55 30.25 12.8 30.25 12.206 30.17C11.578 30.086 11.011 29.9 10.556 29.444C10.1 28.989 9.914 28.422 9.83 27.794C9.75 27.2 9.75 26.451 9.75 25.552V14.448C9.75 13.55 9.75 12.8 9.83 12.206C9.914 11.578 10.1 11.011 10.555 10.556C11.011 10.1 11.578 9.914 12.205 9.83C12.8 9.75 13.55 9.75 14.448 9.75ZM12.405 11.317C11.944 11.379 11.746 11.486 11.616 11.617C11.486 11.748 11.379 11.944 11.316 12.405C11.252 12.888 11.25 13.536 11.25 14.5V25.5C11.25 26.464 11.252 27.112 11.317 27.595C11.379 28.056 11.486 28.254 11.617 28.384C11.748 28.514 11.944 28.621 12.405 28.684C12.888 28.748 13.536 28.75 14.5 28.75C15.464 28.75 16.112 28.748 16.595 28.683C17.056 28.621 17.254 28.514 17.384 28.383C17.514 28.252 17.621 28.056 17.684 27.595C17.748 27.112 17.75 26.464 17.75 25.5V14.5C17.75 13.536 17.748 12.888 17.683 12.405C17.621 11.944 17.514 11.746 17.383 11.616C17.252 11.486 17.056 11.379 16.595 11.316C16.112 11.253 15.464 11.25 14.5 11.25C13.536 11.25 12.888 11.252 12.405 11.317ZM25.448 18.75H25.552C26.451 18.75 27.2 18.75 27.794 18.83C28.422 18.914 28.989 19.1 29.444 19.556C29.9 20.011 30.086 20.578 30.17 21.206C30.25 21.8 30.25 22.55 30.25 23.448V25.552C30.25 26.451 30.25 27.2 30.17 27.794C30.086 28.422 29.9 28.989 29.444 29.444C28.989 29.9 28.422 30.086 27.794 30.17C27.2 30.25 26.451 30.25 25.552 30.25H25.448C24.55 30.25 23.8 30.25 23.206 30.17C22.578 30.086 22.011 29.9 21.556 29.444C21.1 28.989 20.914 28.422 20.83 27.794C20.75 27.2 20.75 26.451 20.75 25.552V23.448C20.75 22.549 20.75 21.8 20.83 21.206C20.914 20.578 21.1 20.011 21.556 19.556C22.011 19.1 22.578 18.914 23.206 18.83C23.8 18.75 24.549 18.75 25.448 18.75ZM23.405 20.316C22.944 20.379 22.746 20.486 22.616 20.616C22.486 20.746 22.379 20.944 22.316 21.406C22.252 21.888 22.25 22.536 22.25 23.5V25.5C22.25 26.464 22.252 27.112 22.316 27.595C22.379 28.056 22.486 28.254 22.616 28.384C22.746 28.514 22.944 28.621 23.406 28.684C23.888 28.748 24.536 28.75 25.5 28.75C26.464 28.75 27.112 28.748 27.595 28.683C28.056 28.621 28.254 28.514 28.384 28.383C28.514 28.252 28.621 28.056 28.684 27.595C28.748 27.112 28.75 26.464 28.75 25.5V23.5C28.75 22.536 28.748 21.888 28.683 21.405C28.621 20.944 28.514 20.746 28.383 20.616C28.252 20.486 28.056 20.379 27.595 20.316C27.112 20.252 26.464 20.25 25.5 20.25C24.536 20.25 23.888 20.252 23.405 20.316ZM24.475 9.75C24.03 9.75 23.659 9.75 23.355 9.77C23.0442 9.78252 22.7377 9.84673 22.448 9.96C22.1143 10.0981 21.811 10.3006 21.5555 10.5559C21.3 10.8112 21.0973 11.1143 20.959 11.448C20.839 11.738 20.792 12.038 20.771 12.355C20.75 12.659 20.75 13.03 20.75 13.475V13.525C20.75 13.97 20.75 14.341 20.77 14.645C20.792 14.962 20.84 15.262 20.96 15.552C21.0981 15.8858 21.3006 16.189 21.5559 16.4445C21.8112 16.7 22.1143 16.9027 22.448 17.041C22.738 17.161 23.038 17.208 23.355 17.229C23.659 17.25 24.03 17.25 24.475 17.25H26.525C26.97 17.25 27.341 17.25 27.645 17.23C27.9558 17.2175 28.2623 17.1533 28.552 17.04C28.8857 16.9019 29.189 16.6994 29.4445 16.4441C29.7 16.1888 29.9027 15.8857 30.041 15.552C30.161 15.262 30.208 14.962 30.229 14.645C30.25 14.341 30.25 13.97 30.25 13.525V13.475C30.25 13.03 30.25 12.659 30.23 12.355C30.2175 12.0442 30.1533 11.7377 30.04 11.448C29.9019 11.1142 29.6994 10.811 29.4441 10.5555C29.1888 10.3 28.8857 10.0973 28.552 9.959C28.262 9.839 27.962 9.792 27.645 9.771C27.341 9.75 26.97 9.75 26.525 9.75H24.475ZM23.022 11.345C23.099 11.313 23.216 11.284 23.457 11.267C23.704 11.25 24.024 11.25 24.5 11.25H26.5C26.976 11.25 27.296 11.25 27.543 11.267C27.784 11.284 27.901 11.313 27.978 11.345C28.285 11.472 28.528 11.715 28.655 12.022C28.687 12.099 28.716 12.216 28.733 12.457C28.75 12.704 28.75 13.024 28.75 13.5C28.75 13.976 28.75 14.296 28.733 14.543C28.716 14.784 28.687 14.901 28.655 14.978C28.5922 15.1298 28.5001 15.2677 28.3839 15.3839C28.2677 15.5001 28.1298 15.5922 27.978 15.655C27.901 15.687 27.784 15.716 27.543 15.733C27.296 15.75 26.976 15.75 26.5 15.75H24.5C24.024 15.75 23.704 15.75 23.457 15.733C23.216 15.716 23.099 15.687 23.022 15.655C22.8702 15.5922 22.7323 15.5001 22.6161 15.3839C22.4999 15.2677 22.4078 15.1298 22.345 14.978C22.313 14.901 22.284 14.784 22.267 14.543C22.2507 14.1956 22.245 13.8478 22.25 13.5C22.25 13.024 22.25 12.704 22.267 12.457C22.284 12.216 22.313 12.099 22.345 12.022C22.472 11.715 22.715 11.472 23.022 11.345Z" fill="#949BAD"/>
</svg>
