<svg width="22" height="22" viewBox="0 0 22 22" fill="none" xmlns="http://www.w3.org/2000/svg">
<path fill-rule="evenodd" clip-rule="evenodd" d="M5.448 0.75H5.552C6.45 0.75 7.2 0.75 7.794 0.83C8.422 0.914 8.989 1.1 9.444 1.555C9.9 2.011 10.086 2.578 10.17 3.205C10.25 3.8 10.25 4.55 10.25 5.448V16.552C10.25 17.451 10.25 18.2 10.17 18.794C10.086 19.422 9.9 19.989 9.444 20.444C8.989 20.9 8.422 21.086 7.794 21.17C7.2 21.25 6.45 21.25 5.552 21.25H5.448C4.55 21.25 3.8 21.25 3.206 21.17C2.578 21.086 2.011 20.9 1.556 20.444C1.1 19.989 0.914 19.422 0.83 18.794C0.75 18.2 0.75 17.451 0.75 16.552V5.448C0.75 4.55 0.75 3.8 0.83 3.206C0.914 2.578 1.1 2.011 1.555 1.556C2.011 1.1 2.578 0.914 3.205 0.83C3.8 0.75 4.55 0.75 5.448 0.75ZM3.405 2.317C2.944 2.379 2.746 2.486 2.616 2.617C2.486 2.748 2.379 2.944 2.316 3.405C2.252 3.888 2.25 4.536 2.25 5.5V16.5C2.25 17.464 2.252 18.112 2.317 18.595C2.379 19.056 2.486 19.254 2.617 19.384C2.748 19.514 2.944 19.621 3.405 19.684C3.888 19.748 4.536 19.75 5.5 19.75C6.464 19.75 7.112 19.748 7.595 19.683C8.056 19.621 8.254 19.514 8.384 19.383C8.514 19.252 8.621 19.056 8.684 18.595C8.748 18.112 8.75 17.464 8.75 16.5V5.5C8.75 4.536 8.748 3.888 8.683 3.405C8.621 2.944 8.514 2.746 8.383 2.616C8.252 2.486 8.056 2.379 7.595 2.316C7.112 2.253 6.464 2.25 5.5 2.25C4.536 2.25 3.888 2.252 3.405 2.317ZM16.448 9.75H16.552C17.451 9.75 18.2 9.75 18.794 9.83C19.422 9.914 19.989 10.1 20.444 10.556C20.9 11.011 21.086 11.578 21.17 12.206C21.25 12.8 21.25 13.55 21.25 14.448V16.552C21.25 17.451 21.25 18.2 21.17 18.794C21.086 19.422 20.9 19.989 20.444 20.444C19.989 20.9 19.422 21.086 18.794 21.17C18.2 21.25 17.451 21.25 16.552 21.25H16.448C15.55 21.25 14.8 21.25 14.206 21.17C13.578 21.086 13.011 20.9 12.556 20.444C12.1 19.989 11.914 19.422 11.83 18.794C11.75 18.2 11.75 17.451 11.75 16.552V14.448C11.75 13.549 11.75 12.8 11.83 12.206C11.914 11.578 12.1 11.011 12.556 10.556C13.011 10.1 13.578 9.914 14.206 9.83C14.8 9.75 15.549 9.75 16.448 9.75ZM14.405 11.316C13.944 11.379 13.746 11.486 13.616 11.616C13.486 11.746 13.379 11.944 13.316 12.406C13.252 12.888 13.25 13.536 13.25 14.5V16.5C13.25 17.464 13.252 18.112 13.316 18.595C13.379 19.056 13.486 19.254 13.616 19.384C13.746 19.514 13.944 19.621 14.406 19.684C14.888 19.748 15.536 19.75 16.5 19.75C17.464 19.75 18.112 19.748 18.595 19.683C19.056 19.621 19.254 19.514 19.384 19.383C19.514 19.252 19.621 19.056 19.684 18.595C19.748 18.112 19.75 17.464 19.75 16.5V14.5C19.75 13.536 19.748 12.888 19.683 12.405C19.621 11.944 19.514 11.746 19.383 11.616C19.252 11.486 19.056 11.379 18.595 11.316C18.112 11.252 17.464 11.25 16.5 11.25C15.536 11.25 14.888 11.252 14.405 11.316ZM15.475 0.75C15.03 0.75 14.659 0.75 14.355 0.77C14.0442 0.782516 13.7377 0.846729 13.448 0.96C13.1143 1.09809 12.811 1.30057 12.5555 1.55589C12.3 1.8112 12.0973 2.11434 11.959 2.448C11.839 2.738 11.792 3.038 11.771 3.355C11.75 3.659 11.75 4.03 11.75 4.475V4.525C11.75 4.97 11.75 5.341 11.77 5.645C11.792 5.962 11.84 6.262 11.96 6.552C12.0981 6.88575 12.3006 7.18903 12.5559 7.44451C12.8112 7.7 13.1143 7.90269 13.448 8.041C13.738 8.161 14.038 8.208 14.355 8.229C14.659 8.25 15.03 8.25 15.475 8.25H17.525C17.97 8.25 18.341 8.25 18.645 8.23C18.9558 8.21748 19.2623 8.15327 19.552 8.04C19.8857 7.90191 20.189 7.69943 20.4445 7.44411C20.7 7.1888 20.9027 6.88566 21.041 6.552C21.161 6.262 21.208 5.962 21.229 5.645C21.25 5.341 21.25 4.97 21.25 4.525V4.475C21.25 4.03 21.25 3.659 21.23 3.355C21.2175 3.04421 21.1533 2.73768 21.04 2.448C20.9019 2.11425 20.6994 1.81097 20.4441 1.55549C20.1888 1.3 19.8857 1.09731 19.552 0.959C19.262 0.839 18.962 0.792 18.645 0.771C18.341 0.75 17.97 0.75 17.525 0.75H15.475ZM14.022 2.345C14.099 2.313 14.216 2.284 14.457 2.267C14.704 2.25 15.024 2.25 15.5 2.25H17.5C17.976 2.25 18.296 2.25 18.543 2.267C18.784 2.284 18.901 2.313 18.978 2.345C19.285 2.472 19.528 2.715 19.655 3.022C19.687 3.099 19.716 3.216 19.733 3.457C19.75 3.704 19.75 4.024 19.75 4.5C19.75 4.976 19.75 5.296 19.733 5.543C19.716 5.784 19.687 5.901 19.655 5.978C19.5922 6.1298 19.5001 6.26772 19.3839 6.38389C19.2677 6.50005 19.1298 6.59218 18.978 6.655C18.901 6.687 18.784 6.716 18.543 6.733C18.296 6.75 17.976 6.75 17.5 6.75H15.5C15.024 6.75 14.704 6.75 14.457 6.733C14.216 6.716 14.099 6.687 14.022 6.655C13.8702 6.59218 13.7323 6.50005 13.6161 6.38389C13.4999 6.26772 13.4078 6.1298 13.345 5.978C13.313 5.901 13.284 5.784 13.267 5.543C13.2507 5.19559 13.245 4.84776 13.25 4.5C13.25 4.024 13.25 3.704 13.267 3.457C13.284 3.216 13.313 3.099 13.345 3.022C13.472 2.715 13.715 2.472 14.022 2.345Z" fill="#949BAD"/>
</svg>
