<svg width="24" height="24" viewBox="0 0 24 24" fill="none" xmlns="http://www.w3.org/2000/svg">
<path fill-rule="evenodd" clip-rule="evenodd" d="M12.25 3.084C11.79 3.006 11.162 3 10.03 3C8.11296 3 6.74996 3.002 5.71796 3.14C4.70596 3.275 4.12496 3.53 3.70196 3.952C3.27896 4.374 3.02496 4.955 2.88996 5.961C2.75196 6.989 2.74996 8.343 2.74996 10.251V14.251C2.74996 16.157 2.75196 17.511 2.88996 18.539C3.02496 19.545 3.27896 20.125 3.70196 20.549C4.12496 20.971 4.70496 21.225 5.71096 21.36C6.73896 21.499 8.09296 21.5 9.99996 21.5H14C15.907 21.5 17.262 21.498 18.29 21.36C19.295 21.225 19.875 20.971 20.298 20.548C20.721 20.125 20.975 19.545 21.11 18.539C21.248 17.512 21.25 16.157 21.25 14.25V13.813C21.25 12.277 21.24 11.549 21.076 11H17.946C16.813 11 15.888 11 15.156 10.902C14.393 10.799 13.731 10.577 13.202 10.048C12.673 9.519 12.451 8.858 12.348 8.093C12.25 7.363 12.25 6.437 12.25 5.303V3.084ZM13.75 3.86V5.25C13.75 6.45 13.752 7.274 13.835 7.893C13.915 8.491 14.059 8.784 14.263 8.987C14.467 9.19 14.759 9.335 15.357 9.415C15.976 9.498 16.8 9.5 18 9.5H20.02C19.6362 9.13462 19.2461 8.7759 18.85 8.424L14.891 4.861C14.5175 4.51957 14.1371 4.18583 13.75 3.86ZM10.175 1.5C11.56 1.5 12.455 1.5 13.278 1.815C14.101 2.131 14.763 2.727 15.788 3.65L15.895 3.746L19.853 7.309L19.978 7.421C21.162 8.486 21.928 9.175 22.339 10.099C22.75 11.023 22.751 12.053 22.75 13.645V14.306C22.75 16.144 22.75 17.6 22.597 18.739C22.439 19.911 22.107 20.86 21.359 21.609C20.61 22.357 19.661 22.689 18.489 22.847C17.349 23 15.894 23 14.056 23H9.94396C8.10596 23 6.64996 23 5.51096 22.847C4.33896 22.689 3.38996 22.357 2.64096 21.609C1.89296 20.86 1.56096 19.911 1.40296 18.739C1.24996 17.599 1.24996 16.144 1.24996 14.306V10.195C1.24996 8.357 1.24996 6.901 1.40296 5.762C1.56096 4.59 1.89296 3.641 2.64096 2.892C3.39096 2.143 4.34196 1.812 5.51896 1.654C6.66296 1.501 8.12596 1.501 9.97396 1.501H10.176" fill="#2B579A"/>
<path d="M7.67199 13.328C8.08265 13.328 8.44532 13.4027 8.75999 13.552C9.07466 13.7013 9.33599 13.904 9.54399 14.16C9.75732 14.416 9.91732 14.7173 10.024 15.064C10.136 15.4107 10.192 15.7787 10.192 16.168C10.192 16.5627 10.1333 16.9333 10.016 17.28C9.90399 17.6213 9.74666 17.92 9.54399 18.176C9.34132 18.432 9.10132 18.6347 8.82399 18.784C8.54666 18.928 8.24532 19 7.91999 19H5.38399V13.328H7.67199ZM7.67999 17.904C7.90932 17.904 8.10399 17.8587 8.26399 17.768C8.42932 17.672 8.56532 17.544 8.67199 17.384C8.77866 17.224 8.85599 17.04 8.90399 16.832C8.95732 16.624 8.98399 16.4053 8.98399 16.176C8.98399 15.9467 8.95999 15.728 8.91199 15.52C8.86399 15.3067 8.78666 15.12 8.67999 14.96C8.57332 14.8 8.43732 14.672 8.27199 14.576C8.10666 14.48 7.90932 14.432 7.67999 14.432H6.59999V17.904H7.67999Z" fill="#2B579A"/>
</svg>
