<svg width="24" height="24" viewBox="0 0 24 24" fill="none" xmlns="http://www.w3.org/2000/svg">
<path fill-rule="evenodd" clip-rule="evenodd" d="M5.24995 14.75C5.24995 14.5511 5.32897 14.3603 5.46962 14.2197C5.61028 14.079 5.80104 14 5.99995 14H14C14.1989 14 14.3896 14.079 14.5303 14.2197C14.6709 14.3603 14.75 14.5511 14.75 14.75C14.75 14.9489 14.6709 15.1397 14.5303 15.2803C14.3896 15.421 14.1989 15.5 14 15.5H5.99995C5.80104 15.5 5.61028 15.421 5.46962 15.2803C5.32897 15.1397 5.24995 14.9489 5.24995 14.75ZM5.24995 18.25C5.24995 18.0511 5.32897 17.8603 5.46962 17.7197C5.61028 17.579 5.80104 17.5 5.99995 17.5H11.5C11.6989 17.5 11.8896 17.579 12.0303 17.7197C12.1709 17.8603 12.25 18.0511 12.25 18.25C12.25 18.4489 12.1709 18.6397 12.0303 18.7803C11.8896 18.921 11.6989 19 11.5 19H5.99995C5.80104 19 5.61028 18.921 5.46962 18.7803C5.32897 18.6397 5.24995 18.4489 5.24995 18.25Z" fill="#949BAD"/>
<path fill-rule="evenodd" clip-rule="evenodd" d="M12.25 3.084C11.79 3.006 11.162 3 10.03 3C8.11295 3 6.74995 3.002 5.71795 3.14C4.70595 3.275 4.12495 3.53 3.70195 3.952C3.27895 4.374 3.02495 4.955 2.88995 5.961C2.75195 6.989 2.74995 8.343 2.74995 10.251V14.251C2.74995 16.157 2.75195 17.511 2.88995 18.539C3.02495 19.545 3.27895 20.125 3.70195 20.549C4.12495 20.971 4.70495 21.225 5.71095 21.36C6.73895 21.499 8.09295 21.5 9.99995 21.5H14C15.907 21.5 17.262 21.498 18.29 21.36C19.295 21.225 19.875 20.971 20.298 20.548C20.721 20.125 20.975 19.545 21.11 18.539C21.248 17.512 21.25 16.157 21.25 14.25V13.813C21.25 12.277 21.24 11.549 21.076 11H17.946C16.813 11 15.888 11 15.156 10.902C14.393 10.799 13.731 10.577 13.202 10.048C12.673 9.519 12.451 8.858 12.348 8.093C12.25 7.363 12.25 6.437 12.25 5.303V3.084ZM13.75 3.86V5.25C13.75 6.45 13.752 7.274 13.835 7.893C13.915 8.491 14.059 8.784 14.263 8.987C14.467 9.19 14.759 9.335 15.357 9.415C15.976 9.498 16.8 9.5 18 9.5H20.02C19.6362 9.13462 19.2461 8.7759 18.85 8.424L14.891 4.861C14.5175 4.51957 14.1371 4.18583 13.75 3.86ZM10.175 1.5C11.56 1.5 12.455 1.5 13.278 1.815C14.101 2.131 14.763 2.727 15.788 3.65L15.895 3.746L19.853 7.309L19.978 7.421C21.162 8.486 21.928 9.175 22.339 10.099C22.75 11.023 22.751 12.053 22.75 13.645V14.306C22.75 16.144 22.75 17.6 22.597 18.739C22.439 19.911 22.107 20.86 21.359 21.609C20.61 22.357 19.661 22.689 18.489 22.847C17.349 23 15.894 23 14.056 23H9.94395C8.10595 23 6.64995 23 5.51095 22.847C4.33895 22.689 3.38995 22.357 2.64095 21.609C1.89295 20.86 1.56095 19.911 1.40295 18.739C1.24995 17.599 1.24995 16.144 1.24995 14.306V10.195C1.24995 8.357 1.24995 6.901 1.40295 5.762C1.56095 4.59 1.89295 3.641 2.64095 2.892C3.39095 2.143 4.34195 1.812 5.51895 1.654C6.66295 1.501 8.12595 1.501 9.97395 1.501H10.176" fill="#949BAD"/>
</svg>
