<svg width="24" height="24" viewBox="0 0 24 24" fill="none" xmlns="http://www.w3.org/2000/svg">
<path fill-rule="evenodd" clip-rule="evenodd" d="M12.25 3.084C11.79 3.006 11.162 3 10.03 3C8.11296 3 6.74996 3.002 5.71796 3.14C4.70596 3.275 4.12496 3.53 3.70196 3.952C3.27896 4.374 3.02496 4.955 2.88996 5.961C2.75196 6.989 2.74996 8.343 2.74996 10.251V14.251C2.74996 16.157 2.75196 17.511 2.88996 18.539C3.02496 19.545 3.27896 20.125 3.70196 20.549C4.12496 20.971 4.70496 21.225 5.71096 21.36C6.73896 21.499 8.09296 21.5 9.99996 21.5H14C15.907 21.5 17.262 21.498 18.29 21.36C19.295 21.225 19.875 20.971 20.298 20.548C20.721 20.125 20.975 19.545 21.11 18.539C21.248 17.512 21.25 16.157 21.25 14.25V13.813C21.25 12.277 21.24 11.549 21.076 11H17.946C16.813 11 15.888 11 15.156 10.902C14.393 10.799 13.731 10.577 13.202 10.048C12.673 9.519 12.451 8.858 12.348 8.093C12.25 7.363 12.25 6.437 12.25 5.303V3.084ZM13.75 3.86V5.25C13.75 6.45 13.752 7.274 13.835 7.893C13.915 8.491 14.059 8.784 14.263 8.987C14.467 9.19 14.759 9.335 15.357 9.415C15.976 9.498 16.8 9.5 18 9.5H20.02C19.6362 9.13462 19.2461 8.7759 18.85 8.424L14.891 4.861C14.5175 4.51957 14.1371 4.18583 13.75 3.86ZM10.175 1.5C11.56 1.5 12.455 1.5 13.278 1.815C14.101 2.131 14.763 2.727 15.788 3.65L15.895 3.746L19.853 7.309L19.978 7.421C21.162 8.486 21.928 9.175 22.339 10.099C22.75 11.023 22.751 12.053 22.75 13.645V14.306C22.75 16.144 22.75 17.6 22.597 18.739C22.439 19.911 22.107 20.86 21.359 21.609C20.61 22.357 19.661 22.689 18.489 22.847C17.349 23 15.894 23 14.056 23H9.94396C8.10596 23 6.64996 23 5.51096 22.847C4.33896 22.689 3.38996 22.357 2.64096 21.609C1.89296 20.86 1.56096 19.911 1.40296 18.739C1.24996 17.599 1.24996 16.144 1.24996 14.306V10.195C1.24996 8.357 1.24996 6.901 1.40296 5.762C1.56096 4.59 1.89296 3.641 2.64096 2.892C3.39096 2.143 4.34196 1.812 5.51896 1.654C6.66296 1.501 8.12596 1.501 9.97396 1.501H10.176" fill="#B80000"/>
<path d="M6.34139 16.3058C6.44779 16.3058 6.54785 16.3273 6.64159 16.3704C6.73532 16.4109 6.81639 16.4679 6.88479 16.5414C6.95572 16.6123 7.01145 16.6972 7.05199 16.796C7.09252 16.8923 7.11279 16.9961 7.11279 17.1076C7.11279 17.2191 7.09252 17.3242 7.05199 17.423C7.01145 17.5193 6.95572 17.6041 6.88479 17.6776C6.81639 17.7511 6.73532 17.8093 6.64159 17.8524C6.54785 17.8929 6.44779 17.9132 6.34139 17.9132H5.75239V19H5.17859V16.3058H6.34139ZM6.26539 17.3888C6.33885 17.3888 6.40219 17.3622 6.45539 17.309C6.51112 17.2533 6.53899 17.1861 6.53899 17.1076C6.53899 17.0316 6.51112 16.967 6.45539 16.9138C6.40219 16.8581 6.33885 16.8302 6.26539 16.8302H5.75239V17.3888H6.26539Z" fill="#B80000"/>
<path d="M8.31495 16.3058C8.51002 16.3058 8.68229 16.3413 8.83175 16.4122C8.98122 16.4831 9.10535 16.5794 9.20415 16.701C9.30549 16.8226 9.38149 16.9657 9.43215 17.1304C9.48535 17.2951 9.51195 17.4699 9.51195 17.6548C9.51195 17.8423 9.48409 18.0183 9.42835 18.183C9.37515 18.3451 9.30042 18.487 9.20415 18.6086C9.10789 18.7302 8.99389 18.8265 8.86215 18.8974C8.73042 18.9658 8.58729 19 8.43275 19H7.22815V16.3058H8.31495ZM8.31875 18.4794C8.42769 18.4794 8.52015 18.4579 8.59615 18.4148C8.67469 18.3692 8.73929 18.3084 8.78995 18.2324C8.84062 18.1564 8.87735 18.069 8.90015 17.9702C8.92549 17.8714 8.93815 17.7675 8.93815 17.6586C8.93815 17.5497 8.92675 17.4458 8.90395 17.347C8.88115 17.2457 8.84442 17.157 8.79375 17.081C8.74309 17.005 8.67849 16.9442 8.59995 16.8986C8.52142 16.853 8.42769 16.8302 8.31875 16.8302H7.80575V18.4794H8.31875Z" fill="#B80000"/>
<path d="M9.7043 16.3058H11.3877V16.8302H10.2819V17.3166H11.2547V17.841H10.2819V19H9.7043V16.3058Z" fill="#B80000"/>
</svg>
