<svg width="12" height="12" viewBox="0 0 12 12" fill="none" xmlns="http://www.w3.org/2000/svg">
    <path fillRule="evenodd" clipRule="evenodd" d="M2.21497 4.25597C2.24703 4.21856 2.28615 4.18783 2.3301 4.16555C2.37404 4.14326 2.42194 4.12986 2.47107 4.12609C2.5202 4.12233 2.56959 4.12829 2.61641 4.14363C2.66324 4.15896 2.70658 4.18337 2.74397 4.21547L5.99997 7.00597L9.25596 4.21547C9.33188 4.15453 9.42851 4.1255 9.52544 4.13452C9.62236 4.14353 9.71199 4.18989 9.77536 4.26378C9.83873 4.33767 9.87089 4.43331 9.86503 4.53048C9.85917 4.62764 9.81576 4.71873 9.74397 4.78447L6.24397 7.78447C6.17601 7.8427 6.08946 7.87471 5.99997 7.87471C5.91047 7.87471 5.82393 7.8427 5.75597 7.78447L2.25597 4.78447C2.18056 4.71973 2.13394 4.6277 2.12634 4.5286C2.11875 4.4295 2.1508 4.33144 2.21547 4.25597" fill="#FF432B"/>
</svg>