<svg width="18" height="18" viewBox="0 0 18 18" fill="none" xmlns="http://www.w3.org/2000/svg">
<path fill-rule="evenodd" clip-rule="evenodd" d="M3.12749 0.875H14.8725C15.4283 0.875 15.9033 0.875 16.2833 0.9225C16.6858 0.973333 17.075 1.0875 17.395 1.3875C17.72 1.69333 17.8492 2.07417 17.9058 2.47C17.9583 2.83417 17.9583 3.28667 17.9583 3.80333V4.45C17.9583 4.8575 17.9583 5.20833 17.9283 5.5025C17.895 5.81917 17.8242 6.115 17.6525 6.39917C17.4817 6.68167 17.2525 6.88667 16.9875 7.07C16.7383 7.24333 16.4208 7.4225 16.0458 7.63333L13.5942 9.01333C13.0358 9.3275 12.8417 9.44083 12.7117 9.55333C12.4142 9.81167 12.2433 10.0992 12.1633 10.4583C12.1292 10.6125 12.125 10.8058 12.125 11.3942V13.6708C12.125 14.4217 12.125 15.0592 12.0475 15.55C11.9658 16.0708 11.775 16.5708 11.275 16.8833C10.7858 17.1892 10.2483 17.1608 9.72499 17.0367C9.22082 16.9175 8.59999 16.6742 7.85499 16.3833L7.78332 16.355C7.43332 16.2183 7.12832 16.0992 6.88666 15.9742C6.62666 15.84 6.38499 15.6733 6.20082 15.4133C6.01332 15.15 5.93916 14.8683 5.90499 14.58C5.87499 14.3175 5.87499 14.0025 5.87499 13.6508V11.3942C5.87499 10.8058 5.87166 10.6125 5.83666 10.4583C5.76119 10.1035 5.56795 9.78452 5.28832 9.55333C5.15832 9.44083 4.96332 9.3275 4.40582 9.01333L1.95416 7.63333C1.57916 7.4225 1.26166 7.24333 1.01249 7.07C0.74749 6.88667 0.518323 6.68167 0.34749 6.39917C0.175823 6.115 0.10499 5.81833 0.0724898 5.5025C0.0416564 5.20917 0.0416565 4.8575 0.0416565 4.45V3.80333C0.0416565 3.28667 0.0416565 2.83417 0.0941565 2.47C0.150823 2.07417 0.27999 1.69333 0.60499 1.3875C0.92499 1.0875 1.31332 0.973333 1.71666 0.9225C2.09666 0.875 2.57166 0.875 3.12749 0.875ZM1.87332 2.16333C1.59499 2.19833 1.50666 2.255 1.46082 2.29917C1.41916 2.3375 1.36582 2.405 1.33082 2.6475C1.29332 2.9125 1.29166 3.27417 1.29166 3.84583V4.42083C1.29166 4.86583 1.29166 5.1525 1.31499 5.37417C1.33666 5.58 1.37332 5.67917 1.41832 5.75333C1.46416 5.82917 1.54082 5.915 1.72499 6.04333C1.91999 6.17833 2.18582 6.32917 2.59166 6.5575L5.01916 7.92417L5.08582 7.96167C5.55249 8.22417 5.86916 8.4025 6.10749 8.60917C6.58951 9.0158 6.92351 9.57043 7.05749 10.1867C7.12499 10.4925 7.12499 10.8367 7.12499 11.32V13.6192C7.12499 14.0125 7.12582 14.2542 7.14749 14.4358C7.16582 14.6008 7.19666 14.6567 7.21916 14.6892C7.24416 14.7242 7.29416 14.7783 7.45999 14.8642C7.63666 14.955 7.88082 15.0508 8.26582 15.2017C9.06666 15.515 9.60582 15.7242 10.0133 15.8208C10.4125 15.9158 10.5442 15.8667 10.6117 15.8242C10.6683 15.7883 10.7558 15.7158 10.8133 15.355C10.8733 14.9742 10.875 14.4358 10.875 13.6183V11.32C10.875 10.8367 10.875 10.4925 10.9433 10.1867C11.0771 9.57054 11.4108 9.01593 11.8925 8.60917C12.1308 8.4025 12.4483 8.22333 12.9133 7.96167L12.9808 7.92417L15.4083 6.5575C15.8142 6.32917 16.08 6.17833 16.275 6.04333C16.4592 5.915 16.5358 5.82917 16.5817 5.75333C16.6267 5.67917 16.6633 5.58 16.6842 5.37417C16.7075 5.1525 16.7083 4.86583 16.7083 4.42V3.845C16.7083 3.27417 16.7067 2.91167 16.6692 2.6475C16.6342 2.405 16.58 2.3375 16.54 2.29917C16.4933 2.25583 16.405 2.19833 16.1267 2.16333C15.835 2.12583 15.4392 2.125 14.8333 2.125H3.16666C2.56082 2.125 2.16582 2.12583 1.87332 2.16333Z" fill="#949BAD"/>
</svg>
