<svg width="20" height="20" viewBox="0 0 20 20" fill="none" xmlns="http://www.w3.org/2000/svg">
<path fill-rule="evenodd" clip-rule="evenodd" d="M9.95246 1.04163H10.0475C11.9716 1.04163 13.4791 1.04163 14.6558 1.19996C15.8591 1.36163 16.8091 1.69996 17.555 2.44496C18.3008 3.19079 18.6383 4.14079 18.8 5.34496C18.9583 6.52079 18.9583 8.02829 18.9583 9.95246V10.0475C18.9583 11.9716 18.9583 13.4791 18.8 14.6558C18.6383 15.8591 18.3 16.8091 17.555 17.555C16.8091 18.3008 15.8591 18.6383 14.655 18.8C13.4791 18.9583 11.9716 18.9583 10.0475 18.9583H9.95246C8.02829 18.9583 6.52079 18.9583 5.34413 18.8C4.14079 18.6383 3.19079 18.3 2.44496 17.555C1.69913 16.8091 1.36163 15.8591 1.19996 14.655C1.04163 13.4791 1.04163 11.9716 1.04163 10.0475V9.95246C1.04163 8.02829 1.04163 6.52079 1.19996 5.34413C1.36163 4.14079 1.69996 3.19079 2.44496 2.44496C3.19079 1.69913 4.14079 1.36163 5.34496 1.19996C6.52079 1.04163 8.02829 1.04163 9.95246 1.04163ZM5.51079 2.43829C4.44579 2.58163 3.80329 2.85496 3.32913 3.32913C2.85413 3.80413 2.58163 4.44579 2.43829 5.51163C2.29329 6.59496 2.29163 8.01829 2.29163 9.99996C2.29163 11.9816 2.29329 13.405 2.43829 14.4883C2.58163 15.5541 2.85496 16.1966 3.32913 16.6716C3.80413 17.1458 4.44579 17.4183 5.51163 17.5616C6.59496 17.7066 8.01829 17.7083 9.99996 17.7083C11.9816 17.7083 13.405 17.7066 14.4883 17.5616C15.5541 17.4183 16.1966 17.145 16.6716 16.6708C17.1458 16.1958 17.4183 15.5541 17.5616 14.4883C17.7066 13.405 17.7083 11.9816 17.7083 9.99996C17.7083 8.01829 17.7066 6.59496 17.5616 5.51163C17.4183 4.44579 17.145 3.80329 16.6708 3.32829C16.1958 2.85413 15.5541 2.58163 14.4883 2.43829C13.405 2.29329 11.9816 2.29163 9.99996 2.29163C8.01829 2.29163 6.59413 2.29329 5.51079 2.43829Z" fill="#FF432B"/>
<path d="M1.66663 9.375L18.3333 9.375M6.66663 9.375V18.3333M13.125 9.375V18.3333" stroke="#FF432B" stroke-width="1.5"/>
</svg>
