<svg width="28" height="28" viewBox="0 0 28 28" fill="none" xmlns="http://www.w3.org/2000/svg">
<path fill-rule="evenodd" clip-rule="evenodd" d="M13.9525 5.04163H14.0475C15.9716 5.04163 17.4791 5.04163 18.6558 5.19996C19.8591 5.36163 20.8091 5.69996 21.555 6.44496C22.3008 7.19079 22.6383 8.14079 22.8 9.34496C22.9583 10.5208 22.9583 12.0283 22.9583 13.9525V14.0475C22.9583 15.9716 22.9583 17.4791 22.8 18.6558C22.6383 19.8591 22.3 20.8091 21.555 21.555C20.8091 22.3008 19.8591 22.6383 18.655 22.8C17.4791 22.9583 15.9716 22.9583 14.0475 22.9583H13.9525C12.0283 22.9583 10.5208 22.9583 9.34413 22.8C8.14079 22.6383 7.19079 22.3 6.44496 21.555C5.69913 20.8091 5.36163 19.8591 5.19996 18.655C5.04163 17.4791 5.04163 15.9716 5.04163 14.0475V13.9525C5.04163 12.0283 5.04163 10.5208 5.19996 9.34413C5.36163 8.14079 5.69996 7.19079 6.44496 6.44496C7.19079 5.69913 8.14079 5.36163 9.34496 5.19996C10.5208 5.04163 12.0283 5.04163 13.9525 5.04163ZM9.51079 6.43829C8.44579 6.58163 7.80329 6.85496 7.32913 7.32913C6.85413 7.80413 6.58163 8.44579 6.43829 9.51163C6.29329 10.595 6.29163 12.0183 6.29163 14C6.29163 15.9816 6.29329 17.405 6.43829 18.4883C6.58163 19.5541 6.85496 20.1966 7.32913 20.6716C7.80413 21.1458 8.44579 21.4183 9.51163 21.5616C10.595 21.7066 12.0183 21.7083 14 21.7083C15.9816 21.7083 17.405 21.7066 18.4883 21.5616C19.5541 21.4183 20.1966 21.145 20.6716 20.6708C21.1458 20.1958 21.4183 19.5541 21.5616 18.4883C21.7066 17.405 21.7083 15.9816 21.7083 14C21.7083 12.0183 21.7066 10.595 21.5616 9.51163C21.4183 8.44579 21.145 7.80329 20.6708 7.32829C20.1958 6.85413 19.5541 6.58163 18.4883 6.43829C17.405 6.29329 15.9816 6.29163 14 6.29163C12.0183 6.29163 10.5941 6.29329 9.51079 6.43829ZM12.765 9.37996C12.8245 9.43656 12.8723 9.50435 12.9056 9.57943C12.9389 9.65452 12.9571 9.73544 12.9591 9.81755C12.9611 9.89967 12.9469 9.98138 12.9173 10.058C12.8877 10.1346 12.8433 10.2047 12.7866 10.2641L10.4058 12.7641C10.3474 12.8254 10.2772 12.8742 10.1994 12.9075C10.1217 12.9408 10.0379 12.958 9.95329 12.958C9.86867 12.958 9.78493 12.9408 9.70715 12.9075C9.62937 12.8742 9.55916 12.8254 9.50079 12.7641L8.54829 11.7641C8.48926 11.7052 8.44263 11.635 8.41113 11.5578C8.37963 11.4806 8.36392 11.3978 8.3649 11.3144C8.36589 11.231 8.38356 11.1486 8.41688 11.0722C8.45019 10.9957 8.49848 10.9267 8.55889 10.8692C8.6193 10.8116 8.69061 10.7668 8.76862 10.7373C8.84663 10.7078 8.92976 10.6941 9.01311 10.6972C9.09646 10.7003 9.17835 10.7201 9.25395 10.7553C9.32955 10.7906 9.39733 10.8406 9.45329 10.9025L9.95329 11.4275L11.8816 9.40246C11.9959 9.2825 12.1532 9.21283 12.3188 9.20877C12.4844 9.2047 12.6449 9.26575 12.765 9.37996ZM14.2083 11.5C14.2083 11.3342 14.2741 11.1752 14.3914 11.058C14.5086 10.9408 14.6675 10.875 14.8333 10.875H19C19.1657 10.875 19.3247 10.9408 19.4419 11.058C19.5591 11.1752 19.625 11.3342 19.625 11.5C19.625 11.6657 19.5591 11.8247 19.4419 11.9419C19.3247 12.0591 19.1657 12.125 19 12.125H14.8333C14.6675 12.125 14.5086 12.0591 14.3914 11.9419C14.2741 11.8247 14.2083 11.6657 14.2083 11.5ZM12.7641 15.2141C13.0141 15.4525 13.0241 15.8475 12.7858 16.0975L10.405 18.5975C10.3466 18.6587 10.2764 18.7075 10.1986 18.7408C10.1208 18.7742 10.0371 18.7913 9.95246 18.7913C9.86784 18.7913 9.7841 18.7742 9.70632 18.7408C9.62854 18.7075 9.55833 18.6587 9.49996 18.5975L8.54746 17.5975C8.48843 17.5385 8.44179 17.4684 8.4103 17.3911C8.3788 17.3139 8.36308 17.2312 8.36407 17.1477C8.36506 17.0643 8.38273 16.982 8.41605 16.9055C8.44936 16.829 8.49765 16.76 8.55805 16.7025C8.61846 16.645 8.68977 16.6001 8.76778 16.5706C8.84579 16.5411 8.92892 16.5275 9.01228 16.5306C9.09563 16.5337 9.17752 16.5534 9.25312 16.5887C9.32872 16.6239 9.39649 16.6739 9.45246 16.7358L9.95246 17.2608L11.8808 15.2358C11.9951 15.1158 12.1523 15.0462 12.318 15.0421C12.4836 15.038 12.6441 15.0999 12.7641 15.2141ZM14.2083 17.3333C14.2083 17.1675 14.2741 17.0086 14.3914 16.8914C14.5086 16.7741 14.6675 16.7083 14.8333 16.7083H19C19.1657 16.7083 19.3247 16.7741 19.4419 16.8914C19.5591 17.0086 19.625 17.1675 19.625 17.3333C19.625 17.4991 19.5591 17.658 19.4419 17.7752C19.3247 17.8924 19.1657 17.9583 19 17.9583H14.8333C14.6675 17.9583 14.5086 17.8924 14.3914 17.7752C14.2741 17.658 14.2083 17.4991 14.2083 17.3333Z" fill="#949BAD"/>
</svg>
