<svg width="1012" height="1024" viewBox="0 0 1012 1024" fill="none" xmlns="http://www.w3.org/2000/svg">
<path d="M562.212 897.95L211.01 1071.84C109.788 1121.98 59.1774 1147.05 36.6217 1138.32C17.196 1130.8 3.28594 1112.88 0.3547 1091.61C-3.04884 1066.92 31.4221 1021.06 100.364 929.349L891.727 -123.382C908.439 -145.614 921.704 -163.26 932.934 -176.637C921.715 -163.269 908.464 -145.641 891.775 -123.439L319.166 638.322C296.116 668.987 284.59 684.32 282.536 700.015C280.735 713.784 283.704 727.768 290.916 739.482C299.137 752.835 315.809 761.741 349.152 779.552L562.212 897.95Z" fill="#FAB8B9"/>
<path d="M923.411 -162.153C911.564 -148.164 897.548 -129.56 879.784 -105.982L314.56 644.259C292.123 674.041 280.904 688.932 278.966 704.128C277.264 717.467 280.284 730.978 287.51 742.357C295.742 755.32 312.256 764.122 345.284 781.725L561.764 897.994L1089.52 637.043C1111.49 626.184 1122.48 620.755 1129.95 612.483C1136.55 605.179 1141.18 596.338 1143.4 586.783C1145.92 575.962 1144.07 563.934 1140.38 539.879L1047.57 -64.3025C1036.97 -133.281 1031.67 -167.771 1015.4 -181.774C1001.28 -193.926 982.155 -198.669 963.923 -194.54C951.787 -191.791 939.633 -181.301 923.411 -162.153Z" fill="#FF9692"/>
<path d="M561.764 897.994L1087.38 1174.63C1140.8 1202.86 1167.51 1216.97 1187.44 1213.48C1204.78 1210.43 1219.83 1199.82 1228.41 1184.57C1238.26 1167.05 1233.55 1137.41 1224.12 1078.14L1144.63 578.509C1144.45 580.644 1144.13 582.671 1143.67 584.657C1141.45 594.192 1136.84 603.017 1130.26 610.314C1122.81 618.577 1111.86 624.013 1089.97 634.884L561.764 897.994Z" fill="#FF432B"/>
</svg>
