<svg width="16" height="16" viewBox="0 0 16 16" fill="none" xmlns="http://www.w3.org/2000/svg">
<g id="ICN/Megaphone">
<path id="Vector" d="M11.4749 1.49131C11.5148 1.36605 11.5037 1.23012 11.4441 1.11294C11.3846 0.995764 11.2812 0.90677 11.1565 0.865225C11.0318 0.82368 10.8957 0.832926 10.7777 0.890961C10.6598 0.948997 10.5694 1.05115 10.5262 1.17531L10.0262 2.67465C9.98634 2.79991 9.99739 2.93584 10.057 3.05302C10.1166 3.1702 10.2199 3.25919 10.3446 3.30074C10.4694 3.34228 10.6054 3.33304 10.7234 3.275C10.8414 3.21697 10.9317 3.11481 10.9749 2.99065L11.4749 1.49131ZM14.5202 1.47998C14.6139 1.57373 14.6665 1.70081 14.6665 1.83331C14.6665 1.96582 14.6139 2.0929 14.5202 2.18665L12.8536 3.85331C12.8078 3.90244 12.7526 3.94184 12.6913 3.96917C12.6299 3.9965 12.5637 4.01119 12.4966 4.01238C12.4294 4.01356 12.3628 4.00121 12.3005 3.97606C12.2382 3.95092 12.1817 3.91349 12.1342 3.86601C12.0867 3.81853 12.0493 3.76197 12.0242 3.69971C11.999 3.63745 11.9867 3.57077 11.9878 3.50363C11.989 3.4365 12.0037 3.37029 12.031 3.30896C12.0584 3.24762 12.0978 3.19242 12.1469 3.14665L13.8136 1.47998C13.9073 1.38635 14.0344 1.33375 14.1669 1.33375C14.2994 1.33375 14.4265 1.38635 14.5202 1.47998ZM6.0509 2.87865C6.16029 2.65151 6.32343 2.45448 6.52618 2.30464C6.72893 2.15481 6.96516 2.05669 7.21441 2.01879C7.46365 1.9809 7.71838 2.00437 7.9565 2.08717C8.19462 2.16998 8.40895 2.30962 8.5809 2.49398L13.2516 7.49798C13.4202 7.67869 13.5432 7.89712 13.6102 8.13503C13.6773 8.37294 13.6865 8.62344 13.637 8.86562C13.5876 9.1078 13.4809 9.33465 13.326 9.52722C13.171 9.7198 12.9722 9.87252 12.7462 9.97265L10.4662 10.9833C10.7435 11.6284 10.7552 12.3568 10.4987 13.0104C10.2423 13.6641 9.73835 14.1902 9.09637 14.4745C8.4544 14.7589 7.72617 14.7786 7.06975 14.5294C6.41333 14.2802 5.88169 13.7821 5.59023 13.1433L4.64557 13.562C4.42951 13.6577 4.19001 13.6875 3.95708 13.6477C3.72415 13.6078 3.50817 13.5001 3.33623 13.338L2.3769 12.4333C2.19142 12.2585 2.06643 12.0291 2.02004 11.7785C1.97365 11.5278 2.00828 11.269 2.1189 11.0393L6.0509 2.87865ZM6.50557 12.738C6.69376 13.1273 7.02591 13.4282 7.43186 13.5772C7.83781 13.7262 8.28578 13.7116 8.68115 13.5365C9.07652 13.3613 9.38834 13.0394 9.55076 12.6386C9.71317 12.2378 9.71346 11.7896 9.55157 11.3886L6.50557 12.738ZM7.84957 3.17665C7.78858 3.1113 7.71258 3.0618 7.62816 3.03243C7.54374 3.00307 7.45343 2.99472 7.36505 3.00811C7.27667 3.02151 7.19289 3.05624 7.12096 3.1093C7.04903 3.16237 6.99112 3.23216 6.95223 3.31265L3.02023 11.4733C3.00168 11.5116 2.99581 11.5548 3.00348 11.5966C3.01115 11.6385 3.03197 11.6768 3.0629 11.706L4.02223 12.61C4.05087 12.637 4.08683 12.6549 4.1256 12.6615C4.16438 12.6682 4.20425 12.6632 4.24023 12.6473L12.3409 9.05865C12.4211 9.02318 12.4917 8.96905 12.5467 8.90075C12.6018 8.83246 12.6397 8.75199 12.6573 8.66607C12.6749 8.58014 12.6717 8.49125 12.648 8.4068C12.6243 8.32236 12.5807 8.24482 12.5209 8.18065L7.84957 3.17665ZM12.6669 5.49931C12.6669 5.36671 12.7196 5.23953 12.8133 5.14576C12.9071 5.05199 13.0343 4.99931 13.1669 4.99931H14.5002C14.6328 4.99931 14.76 5.05199 14.8538 5.14576C14.9476 5.23953 15.0002 5.36671 15.0002 5.49931C15.0002 5.63192 14.9476 5.7591 14.8538 5.85287C14.76 5.94664 14.6328 5.99931 14.5002 5.99931H13.1669C13.0343 5.99931 12.9071 5.94664 12.8133 5.85287C12.7196 5.7591 12.6669 5.63192 12.6669 5.49931Z" fill="#FF432B"/>
</g>
</svg>
