<svg width="14" height="14" viewBox="0 0 14 14" fill="none" xmlns="http://www.w3.org/2000/svg">
<path d="M6.5 6.5V1C6.5 0.867392 6.55268 0.740215 6.64645 0.646447C6.74021 0.552678 6.86739 0.5 7 0.5C7.13261 0.5 7.25979 0.552678 7.35355 0.646447C7.44732 0.740215 7.5 0.867392 7.5 1V6.5H13C13.1326 6.5 13.2598 6.55268 13.3536 6.64645C13.4473 6.74021 13.5 6.86739 13.5 7C13.5 7.13261 13.4473 7.25979 13.3536 7.35355C13.2598 7.44732 13.1326 7.5 13 7.5H7.5V13C7.5 13.1326 7.44732 13.2598 7.35355 13.3536C7.25979 13.4473 7.13261 13.5 7 13.5C6.86739 13.5 6.74021 13.4473 6.64645 13.3536C6.55268 13.2598 6.5 13.1326 6.5 13V7.5H1C0.867392 7.5 0.740215 7.44732 0.646447 7.35355C0.552678 7.25979 0.5 7.13261 0.5 7C0.5 6.86739 0.552678 6.74021 0.646447 6.64645C0.740215 6.55268 0.867392 6.5 1 6.5H6.5Z" fill="#FCFCFF"/>
</svg>
