<svg width="40" height="40" viewBox="0 0 40 40" fill="none" xmlns="http://www.w3.org/2000/svg">
<path d="M20 23C21.6569 23 23 21.6569 23 20C23 18.3431 21.6569 17 20 17C18.3431 17 17 18.3431 17 20C17 21.6569 18.3431 23 20 23Z" stroke="#949BAD" stroke-width="1.5"/>
<path d="M21.765 10.152C21.398 10 20.932 10 20 10C19.068 10 18.602 10 18.235 10.152C17.9921 10.2525 17.7715 10.3999 17.5857 10.5857C17.3999 10.7716 17.2525 10.9922 17.152 11.235C17.06 11.458 17.023 11.719 17.009 12.098C17.0025 12.3719 16.9266 12.6397 16.7884 12.8764C16.6502 13.113 16.4543 13.3107 16.219 13.451C15.9798 13.5848 15.7105 13.6557 15.4365 13.6571C15.1624 13.6585 14.8925 13.5903 14.652 13.459C14.316 13.281 14.073 13.183 13.832 13.151C13.3063 13.0819 12.7747 13.2243 12.354 13.547C12.04 13.79 11.806 14.193 11.34 15C10.874 15.807 10.64 16.21 10.589 16.605C10.5546 16.8655 10.5719 17.1301 10.6398 17.3839C10.7078 17.6377 10.8251 17.8756 10.985 18.084C11.133 18.276 11.34 18.437 11.661 18.639C12.134 18.936 12.438 19.442 12.438 20C12.438 20.558 12.134 21.064 11.661 21.36C11.34 21.563 11.132 21.724 10.985 21.916C10.8251 22.1244 10.7078 22.3623 10.6398 22.6161C10.5719 22.8699 10.5546 23.1345 10.589 23.395C10.641 23.789 10.874 24.193 11.339 25C11.806 25.807 12.039 26.21 12.354 26.453C12.5624 26.6129 12.8003 26.7302 13.0541 26.7981C13.3078 26.8661 13.5725 26.8834 13.833 26.849C14.073 26.817 14.316 26.719 14.652 26.541C14.8925 26.4097 15.1624 26.3415 15.4365 26.3429C15.7105 26.3443 15.9798 26.4152 16.219 26.549C16.702 26.829 16.989 27.344 17.009 27.902C17.023 28.282 17.059 28.542 17.152 28.765C17.2525 29.0078 17.3999 29.2284 17.5857 29.4143C17.7715 29.6001 17.9921 29.7475 18.235 29.848C18.602 30 19.068 30 20 30C20.932 30 21.398 30 21.765 29.848C22.0078 29.7475 22.2284 29.6001 22.4142 29.4143C22.6001 29.2284 22.7474 29.0078 22.848 28.765C22.94 28.542 22.977 28.282 22.991 27.902C23.011 27.344 23.298 26.828 23.781 26.549C24.0202 26.4152 24.2894 26.3443 24.5634 26.3429C24.8375 26.3415 25.1074 26.4097 25.348 26.541C25.684 26.719 25.927 26.817 26.167 26.849C26.4274 26.8834 26.6921 26.8661 26.9459 26.7981C27.1996 26.7302 27.4375 26.6129 27.646 26.453C27.961 26.211 28.194 25.807 28.66 25C29.126 24.193 29.36 23.79 29.411 23.395C29.4453 23.1345 29.428 22.8699 29.3601 22.6161C29.2921 22.3623 29.1749 22.1244 29.015 21.916C28.867 21.724 28.66 21.563 28.339 21.361C28.1049 21.2184 27.9108 21.0187 27.7749 20.7807C27.639 20.5427 27.5658 20.2741 27.562 20C27.562 19.442 27.866 18.936 28.339 18.64C28.66 18.437 28.868 18.276 29.015 18.084C29.1749 17.8756 29.2921 17.6377 29.3601 17.3839C29.428 17.1301 29.4453 16.8655 29.411 16.605C29.359 16.211 29.126 15.807 28.661 15C28.194 14.193 27.961 13.79 27.646 13.547C27.4375 13.3871 27.1996 13.2698 26.9459 13.2019C26.6921 13.1339 26.4274 13.1166 26.167 13.151C25.927 13.183 25.684 13.281 25.347 13.459C25.1065 13.5901 24.8368 13.6582 24.5629 13.6568C24.2891 13.6554 24.02 13.5846 23.781 13.451C23.5456 13.3107 23.3497 13.113 23.2115 12.8764C23.0734 12.6397 22.9975 12.3719 22.991 12.098C22.977 11.718 22.941 11.458 22.848 11.235C22.7474 10.9922 22.6001 10.7716 22.4142 10.5857C22.2284 10.3999 22.0078 10.2525 21.765 10.152Z" stroke="#949BAD" stroke-width="1.5"/>
</svg>
