<svg width="12" height="12" viewBox="0 0 12 12" fill="none" xmlns="http://www.w3.org/2000/svg">
<path fill-rule="evenodd" clip-rule="evenodd" d="M5.75 1.375C5.17547 1.375 4.60656 1.48816 4.07576 1.70803C3.54496 1.92789 3.06266 2.25015 2.65641 2.65641C2.25015 3.06266 1.92789 3.54496 1.70803 4.07576C1.48816 4.60656 1.375 5.17547 1.375 5.75C1.375 6.32453 1.48816 6.89344 1.70803 7.42424C1.92789 7.95504 2.25015 8.43734 2.65641 8.84359C3.06266 9.24985 3.54496 9.57211 4.07576 9.79197C4.60656 10.0118 5.17547 10.125 5.75 10.125C6.91032 10.125 8.02312 9.66406 8.84359 8.84359C9.66406 8.02312 10.125 6.91032 10.125 5.75C10.125 4.58968 9.66406 3.47688 8.84359 2.65641C8.02312 1.83594 6.91032 1.375 5.75 1.375ZM0.625 5.75C0.625 2.92 2.92 0.625 5.75 0.625C8.58 0.625 10.875 2.92 10.875 5.75C10.875 8.58 8.58 10.875 5.75 10.875C2.92 10.875 0.625 8.58 0.625 5.75ZM9.735 9.735C9.80531 9.66477 9.90062 9.62533 10 9.62533C10.0994 9.62533 10.1947 9.66477 10.265 9.735L11.265 10.735C11.3018 10.7693 11.3314 10.8107 11.3519 10.8567C11.3724 10.9027 11.3834 10.9524 11.3843 11.0027C11.3852 11.0531 11.3759 11.1031 11.3571 11.1498C11.3382 11.1965 11.3101 11.2389 11.2745 11.2745C11.2389 11.3101 11.1965 11.3382 11.1498 11.3571C11.1031 11.3759 11.0531 11.3852 11.0027 11.3843C10.9524 11.3834 10.9027 11.3724 10.8567 11.3519C10.8107 11.3314 10.7693 11.3018 10.735 11.265L9.735 10.265C9.66477 10.1947 9.62533 10.0994 9.62533 10C9.62533 9.90062 9.66477 9.80531 9.735 9.735Z" fill="#4F5462"/>
</svg>
