<svg width="28" height="28" viewBox="0 0 28 28" fill="none" xmlns="http://www.w3.org/2000/svg">
<path fill-rule="evenodd" clip-rule="evenodd" d="M8.26425 10.4601C8.42955 10.4491 8.59245 10.5042 8.71714 10.6133C8.84183 10.7223 8.91813 10.8764 8.92925 11.0417L9.31258 16.7917C9.38758 17.9142 9.44091 18.6959 9.55758 19.2834C9.67175 19.8542 9.83008 20.1559 10.0576 20.3692C10.2859 20.5826 10.5976 20.7209 11.1742 20.7959C11.7692 20.8734 12.5526 20.8751 13.6776 20.8751H14.3226C15.4476 20.8751 16.2309 20.8734 16.8259 20.7959C17.4026 20.7209 17.7142 20.5826 17.9426 20.3692C18.1701 20.1559 18.3284 19.8542 18.4426 19.2842C18.5592 18.6959 18.6126 17.9142 18.6876 16.7909L19.0709 11.0417C19.0764 10.9598 19.0979 10.8798 19.1343 10.8062C19.1707 10.7326 19.2213 10.6669 19.2831 10.6129C19.3449 10.5588 19.4167 10.5175 19.4945 10.4912C19.5722 10.4649 19.6544 10.4542 19.7363 10.4597C19.8182 10.4651 19.8983 10.4867 19.9719 10.5231C20.0454 10.5595 20.1111 10.61 20.1652 10.6718C20.2192 10.7336 20.2606 10.8054 20.2869 10.8832C20.3132 10.961 20.3239 11.0432 20.3184 11.1251L19.9317 16.9184C19.8609 17.9867 19.8034 18.8509 19.6684 19.5284C19.5276 20.2326 19.2892 20.8209 18.7959 21.2817C18.3026 21.7426 17.7001 21.9426 16.9876 22.0351C16.3026 22.1251 15.4376 22.1251 14.3667 22.1251H13.6334C12.5626 22.1251 11.6976 22.1251 11.0126 22.0351C10.3001 21.9426 9.69675 21.7434 9.20425 21.2817C8.71091 20.8209 8.47258 20.2317 8.33175 19.5284C8.19675 18.8501 8.14008 17.9867 8.06841 16.9184L7.68175 11.1251C7.67632 11.0432 7.68708 10.961 7.71341 10.8832C7.73975 10.8055 7.78114 10.7337 7.83524 10.6719C7.88933 10.6101 7.95506 10.5597 8.02867 10.5233C8.10228 10.487 8.18233 10.4655 8.26425 10.4601ZM12.6292 5.87507H12.5909C12.4109 5.87507 12.2534 5.87507 12.1051 5.8984C11.8162 5.94469 11.5421 6.05795 11.3048 6.22914C11.0674 6.40032 10.8735 6.62467 10.7384 6.88423C10.6684 7.01757 10.6192 7.16673 10.5626 7.33757L10.5501 7.37423L10.4692 7.6159L10.4451 7.68757C10.3696 7.897 10.2291 8.07676 10.044 8.20049C9.85895 8.32421 9.63912 8.38539 9.41675 8.37507H6.91675C6.75099 8.37507 6.59202 8.44092 6.47481 8.55813C6.3576 8.67534 6.29175 8.83431 6.29175 9.00007C6.29175 9.16583 6.3576 9.3248 6.47481 9.44201C6.59202 9.55922 6.75099 9.62507 6.91675 9.62507H21.0842C21.25 9.62507 21.409 9.55922 21.5262 9.44201C21.6434 9.3248 21.7092 9.16583 21.7092 9.00007C21.7092 8.83431 21.6434 8.67534 21.5262 8.55813C21.409 8.44092 21.25 8.37507 21.0842 8.37507H18.5084C18.2858 8.36973 18.0708 8.29321 17.8949 8.15674C17.719 8.02026 17.5914 7.83101 17.5309 7.61673L17.4501 7.37423L17.4384 7.33757C17.3809 7.16673 17.3317 7.01757 17.2626 6.88423C17.1274 6.62457 16.9333 6.40015 16.6959 6.22896C16.4584 6.05777 16.1842 5.94457 15.8951 5.8984C15.7339 5.8788 15.5715 5.871 15.4092 5.87507H12.6292ZM11.6209 8.11257C11.5876 8.20368 11.5495 8.29118 11.5067 8.37507H16.4934C16.4507 8.29007 16.4128 8.20271 16.3801 8.1134L16.3467 8.0184L16.2642 7.7684C16.234 7.66388 16.197 7.56144 16.1534 7.46173C16.1084 7.37507 16.0438 7.30016 15.9646 7.243C15.8854 7.18584 15.794 7.14801 15.6976 7.13257C15.589 7.12295 15.4798 7.12044 15.3709 7.12507H12.6292C12.3892 7.12507 12.3392 7.12673 12.3026 7.1334C12.2062 7.14876 12.1148 7.18645 12.0357 7.24347C11.9565 7.30048 11.8918 7.37523 11.8467 7.46173C11.8301 7.49507 11.8117 7.5409 11.7359 7.76923L11.6526 8.01923L11.6209 8.11257Z" fill="#949BAD"/>
</svg>
