<svg width="16" height="18" viewBox="0 0 16 18" fill="none" xmlns="http://www.w3.org/2000/svg">
<path fill-rule="evenodd" clip-rule="evenodd" d="M2.26416 5.45995C2.42946 5.44897 2.59235 5.50407 2.71705 5.61314C2.84174 5.72221 2.91803 5.87632 2.92916 6.04161L3.31249 11.7916C3.38749 12.9141 3.44082 13.6958 3.55749 14.2833C3.67166 14.8541 3.82999 15.1558 4.05749 15.3691C4.28582 15.5824 4.59749 15.7208 5.17416 15.7958C5.76916 15.8733 6.55249 15.8749 7.67749 15.8749H8.32249C9.44749 15.8749 10.2308 15.8733 10.8258 15.7958C11.4025 15.7208 11.7142 15.5824 11.9425 15.3691C12.17 15.1558 12.3283 14.8541 12.4425 14.2841C12.5592 13.6958 12.6125 12.9141 12.6875 11.7908L13.0708 6.04161C13.0763 5.9597 13.0978 5.87967 13.1342 5.80609C13.1706 5.7325 13.2212 5.66681 13.283 5.61276C13.3448 5.55871 13.4166 5.51736 13.4944 5.49106C13.5721 5.46477 13.6543 5.45406 13.7362 5.45953C13.8181 5.465 13.8982 5.48655 13.9718 5.52295C14.0453 5.55936 14.111 5.60989 14.1651 5.67168C14.2191 5.73347 14.2605 5.8053 14.2868 5.88308C14.3131 5.96085 14.3238 6.04303 14.3183 6.12495L13.9317 11.9183C13.8608 12.9866 13.8033 13.8508 13.6683 14.5283C13.5275 15.2324 13.2892 15.8208 12.7958 16.2816C12.3025 16.7424 11.7 16.9424 10.9875 17.0349C10.3025 17.1249 9.43749 17.1249 8.36666 17.1249H7.63332C6.56249 17.1249 5.69749 17.1249 5.01249 17.0349C4.29999 16.9424 3.69666 16.7433 3.20416 16.2816C2.71082 15.8208 2.47249 15.2316 2.33166 14.5283C2.19666 13.8499 2.13999 12.9866 2.06832 11.9183L1.68166 6.12495C1.67622 6.04303 1.68698 5.96085 1.71332 5.88309C1.73966 5.80534 1.78105 5.73353 1.83515 5.67177C1.88924 5.61002 1.95497 5.55953 2.02858 5.52318C2.10219 5.48684 2.18224 5.46535 2.26416 5.45995ZM6.62916 0.874946H6.59082C6.41082 0.874946 6.25332 0.874946 6.10499 0.898279C5.81606 0.944565 5.54198 1.05783 5.30467 1.22901C5.06736 1.4002 4.8734 1.62455 4.73832 1.88411C4.66832 2.01745 4.61916 2.16661 4.56249 2.33745L4.54999 2.37411L4.46916 2.61578L4.44499 2.68745C4.36954 2.89688 4.22898 3.07664 4.04392 3.20036C3.85886 3.32409 3.63903 3.38527 3.41666 3.37495H0.916656C0.750896 3.37495 0.591925 3.44079 0.474715 3.558C0.357504 3.67521 0.291656 3.83419 0.291656 3.99995C0.291656 4.16571 0.357504 4.32468 0.474715 4.44189C0.591925 4.5591 0.750896 4.62495 0.916656 4.62495H15.0842C15.2499 4.62495 15.4089 4.5591 15.5261 4.44189C15.6433 4.32468 15.7092 4.16571 15.7092 3.99995C15.7092 3.83419 15.6433 3.67521 15.5261 3.558C15.4089 3.44079 15.2499 3.37495 15.0842 3.37495H12.5083C12.2857 3.36961 12.0707 3.29309 11.8948 3.15661C11.7189 3.02014 11.5913 2.83089 11.5308 2.61661L11.45 2.37411L11.4383 2.33745C11.3808 2.16661 11.3317 2.01745 11.2625 1.88411C11.1273 1.62444 10.9332 1.40003 10.6958 1.22884C10.4583 1.05765 10.1841 0.944443 9.89499 0.898279C9.73383 0.878681 9.57145 0.870882 9.40916 0.874946H6.62916ZM5.62082 3.11245C5.58749 3.20356 5.54943 3.29106 5.50666 3.37495H10.4933C10.4506 3.28995 10.4128 3.20259 10.38 3.11328L10.3467 3.01828L10.2642 2.76828C10.2339 2.66375 10.1969 2.56131 10.1533 2.46161C10.1083 2.37495 10.0437 2.30004 9.96451 2.24288C9.88535 2.18571 9.7939 2.14789 9.69749 2.13245C9.58888 2.12282 9.47976 2.12032 9.37082 2.12495H6.62916C6.38916 2.12495 6.33916 2.12661 6.30249 2.13328C6.20616 2.14864 6.11476 2.18633 6.0356 2.24335C5.95645 2.30036 5.89174 2.37511 5.84666 2.46161C5.82999 2.49495 5.81166 2.54078 5.73582 2.76911L5.65249 3.01911L5.62082 3.11245Z" fill="#949BAD"/>
</svg>
