<svg width="12" height="12" viewBox="0 0 12 12" fill="none" xmlns="http://www.w3.org/2000/svg">
<path fill-rule="evenodd" clip-rule="evenodd" d="M9.78503 7.74403C9.75297 7.78144 9.71385 7.81217 9.6699 7.83445C9.62596 7.85674 9.57806 7.87014 9.52893 7.87391C9.4798 7.87767 9.43041 7.87171 9.38359 7.85637C9.33676 7.84104 9.29342 7.81663 9.25603 7.78453L6.00003 4.99403L2.74404 7.78453C2.66812 7.84547 2.57149 7.8745 2.47456 7.86548C2.37764 7.85647 2.28801 7.81011 2.22464 7.73622C2.16127 7.66233 2.12911 7.56669 2.13497 7.46952C2.14083 7.37236 2.18424 7.28127 2.25603 7.21553L5.75603 4.21553C5.82399 4.1573 5.91054 4.12529 6.00003 4.12529C6.08953 4.12529 6.17607 4.1573 6.24403 4.21553L9.74403 7.21553C9.81944 7.28027 9.86606 7.3723 9.87366 7.4714C9.88125 7.5705 9.8492 7.66856 9.78453 7.74403" fill="#949BAD"/>
</svg>
